<svg id="Layer_1" data-name="Layer 1" xmlns="http://www.w3.org/2000/svg" viewBox="0 0 580.74 709.76"><defs><style>.cls-1{fill:#0171bc;}.cls-2{fill:#2cace3;}</style></defs><path class="cls-1" d="M390.61,506c1.62,9.49,3.21,18.69,4.76,27.9q6.22,37.13,12.42,74.25c1.73,10.36,3.42,20.72,5.31,31.05.54,3-.42,4.82-2.7,6.68-12.75,10.44-27.21,17.7-42.64,23.13-21.05,7.41-42.81,11.12-65.08,12.21a258.07,258.07,0,0,1-111.25-18.73C116.63,632,60.92,565.6,43.5,486.73c-5-22.75-7.35-45.78-5.59-69,6.12-80.85,42.73-144.6,109.14-191,29.07-20.31,61.45-33.15,96.37-39.26A239.47,239.47,0,0,1,355,194.26c57.55,17.33,104,50.12,138,100,21,30.9,33.76,65.08,38.76,102.15,2.6,19.26,2.54,38.63,2.76,58,.75,66.83,0,133.66-.06,200.49,0,6.41,0,12.81-.1,19.21,0,3.71-.08,3.71-3.85,3.9-48.44,2.48-90.54-23.89-109.5-68.53a134,134,0,0,1-10.57-50.26c-.61-30.54-.22-61.08-.17-91.62,0-15.11-.07-30.23-1.06-45.29-2.23-33.8-16.43-61.92-42.31-83.73-25.4-21.43-55-31.93-88.28-29.83a124.38,124.38,0,0,0-110.29,84.92c-23.57,71.6,21.52,148,95.57,160.93,39.3,6.87,74.18-3.26,104.4-29.26,6.34-5.46,12.44-11.21,18.67-16.81C387.86,507.65,388.64,506.52,390.61,506Z"/><path class="cls-2" d="M417,191.26H522c.66,0,1.31,0,2,0,3.63.1,3.7.11,3.71,4,0,12.3,0,24.6,0,36.91q0,34.94,0,69.88c0,1.59.35,3.23-.31,4.8C524.24,304.9,420.21,196.16,417,191.26Z"/><path class="cls-2" d="M469.65,156.85c-34.06.67-66.93-26.79-67-68-.07-37.57,29.75-67,67.5-66.93a66.83,66.83,0,0,1,67.18,67.39C537.15,129.2,504.27,157.63,469.65,156.85Zm.56-14.46c29.09-.11,52.56-24,52.57-53.26a52.54,52.54,0,0,0-53.45-52.66c-29.34.32-52.27,23.36-52.16,52.83C417.29,119.3,440.47,142.51,470.21,142.39Z"/></svg>